#N canvas 578 14 790 632 10;
#X obj 34 65 makenote;
#X obj 32 107 noteout;
#X obj -106 -85 bng 15 250 50 0 empty empty empty 17 7 0 10 -262144
-1 -1;
#X obj -89 -59 metro;
#X msg -141 -61 stop;
#X obj 19 37 tabread;
#X msg -4 -90 set Cmajor;
#X msg 180 -25 \; Cmajor 0 48 50 52 53 55 57 59 60 62 64 65 67 69 71
72 74 76 77 79 81 83 84 86 88 89 91 93 95 96;
#X obj 230 71 table Times 5;
#X obj 83 37 tabread;
#X msg 134 -48 set Times;
#X obj 71 -33 random 5;
#X obj -157 -225 loadbang;
#X obj 165 -194 loadbang;
#X msg 221 -88 \; Dmajor 0 50 52 54 55 57 59 61 62 65 66 67 69 71 73
74 76 78 79 81 83 85 86 88 90 91 93 95 97 98;
#X obj 241 -114 table Dmajor 29;
#X obj -1 -199 textfile;
#X obj 11 -147 print;
#X msg 27 -274 rewind;
#X obj 50 -247 bng 15 250 50 0 empty empty empty 17 7 0 10 -262144
-1 -1;
#X msg 256 107 \; Times 0 500 1000 2000 1000 3000;
#X obj 333 74 table Cmajor 25;
#X obj -52 -20 random 25;
#X obj -46 -135 -;
#X msg -40 -177 500;
#X obj -157 -183 trigger b b b b;
#X msg 2 -300 read pulse.txt;
#X obj 23 129 cyclone/midiformat;
#X obj 23 215 cyclone/seq;
#X msg 106 157 record;
#X msg 154 155 stop record;
#X obj -124 94 pack;
#X msg 38 7 127;
#X msg 188 215 stop;
#X obj 23 239 midiparse;
#X obj 22 284 noteout;
#X msg 182 244 start;
#X text 235 154 <- first record;
#X text 183 268 PLAYBACK: read \, then start then stop;
#X msg 79 -104 set Dmajor;
#X obj 369 -208 float;
#X msg 142 241 read;
#X obj 141 65 metro 1000;
#X obj 204 128 sel 0;
#X obj 135 273 print;
#X obj 170 99 - 1;
#X text 94 51 comment;
#X obj 124 94 f 30;
#X obj 151 127 sel -1;
#X obj 536 172 trigger b b b b;
#X msg 594 207 read recnumber.txt;
#X obj 522 235 textfile;
#X obj 689 252 bng 15 250 50 0 empty empty empty 17 7 0 10 -262144
-1 -1;
#X msg 663 228 rewind;
#X msg 483 54 \; pd-agitated.pd menuclose 1;
#X obj 459 256 makefilename %s.mid;
#X text 330 194 When f 30 hits -1 \, triggers read \, then;
#X text 332 211 write message and textfile;
#X msg 437 279 write \$1;
#X obj 462 312 print;
#X obj -164 128 mtof;
#X obj -157 186 osc~;
#X obj -78 160 / 127;
#X obj -103 198 pack 0 50;
#X obj -104 233 line~;
#X obj -139 255 *~;
#X obj -135 290 dac~;
#X obj 20 262 unpack f f;
#X obj -48 317 trigger b b b b;
#X obj -64 385 textfile;
#X obj 105 397 bng 15 250 50 0 empty empty empty 17 7 0 10 -262144
-1 -1;
#X msg 79 373 rewind;
#X msg 10 352 read volume.txt;
#X obj -124 382 print;
#X connect 0 0 31 0;
#X connect 0 0 1 0;
#X connect 0 1 31 1;
#X connect 0 1 1 1;
#X connect 2 0 3 0;
#X connect 3 0 11 0;
#X connect 3 0 22 0;
#X connect 3 0 68 0;
#X connect 4 0 3 0;
#X connect 4 0 42 0;
#X connect 4 0 49 0;
#X connect 5 0 0 0;
#X connect 6 0 5 0;
#X connect 9 0 0 2;
#X connect 10 0 9 0;
#X connect 11 0 9 0;
#X connect 12 0 16 0;
#X connect 12 0 25 0;
#X connect 12 0 24 0;
#X connect 13 0 6 0;
#X connect 13 0 10 0;
#X connect 13 0 7 0;
#X connect 13 0 20 0;
#X connect 13 0 32 0;
#X connect 13 0 14 0;
#X connect 13 0 40 0;
#X connect 13 0 29 0;
#X connect 13 0 42 0;
#X connect 16 0 23 1;
#X connect 16 1 17 0;
#X connect 18 0 16 0;
#X connect 19 0 16 0;
#X connect 22 0 5 0;
#X connect 23 0 3 1;
#X connect 23 0 17 0;
#X connect 24 0 23 0;
#X connect 25 0 3 0;
#X connect 25 1 16 0;
#X connect 25 2 18 0;
#X connect 25 3 26 0;
#X connect 26 0 16 0;
#X connect 27 0 28 0;
#X connect 28 0 34 0;
#X connect 28 0 60 0;
#X connect 29 0 28 0;
#X connect 30 0 28 0;
#X connect 31 0 27 0;
#X connect 33 0 28 0;
#X connect 34 0 67 0;
#X connect 36 0 28 0;
#X connect 41 0 28 0;
#X connect 42 0 47 0;
#X connect 43 0 30 0;
#X connect 45 0 47 1;
#X connect 47 0 43 0;
#X connect 47 0 44 0;
#X connect 47 0 45 0;
#X connect 47 0 48 0;
#X connect 48 0 4 0;
#X connect 49 1 51 0;
#X connect 49 2 53 0;
#X connect 49 3 50 0;
#X connect 50 0 51 0;
#X connect 51 0 55 0;
#X connect 52 0 51 0;
#X connect 53 0 51 0;
#X connect 55 0 58 0;
#X connect 58 0 59 0;
#X connect 60 0 61 0;
#X connect 61 0 65 0;
#X connect 62 0 63 0;
#X connect 63 0 64 0;
#X connect 64 0 65 1;
#X connect 65 0 66 0;
#X connect 65 0 66 1;
#X connect 67 0 35 0;
#X connect 67 0 68 0;
#X connect 68 1 69 0;
#X connect 68 2 71 0;
#X connect 68 3 72 0;
#X connect 69 0 35 1;
#X connect 69 0 73 0;
#X connect 69 0 0 1;
#X connect 70 0 69 0;
#X connect 71 0 69 0;
#X connect 72 0 69 0;
