#N canvas 0 0 1366 686 10;
#X obj 41 204 makenote;
#X obj 44 258 noteout;
#X obj -96 -74 bng 15 250 50 0 empty empty empty 17 7 0 10 -262144
-1 -1;
#X obj -85 -50 metro;
#X msg -131 -51 stop;
#X obj -50 82 print;
#X obj -2 22 tabread;
#X obj 240 81 table Times 5;
#X obj 91 24 tabread;
#X msg 144 -38 set Times;
#X obj 81 -23 random 5;
#X obj 194 -274 loadbang;
#X obj -42 -10 random 28;
#X msg 231 -78 \; Dmajor 0 50 52 54 55 57 59 61 62 65 66 67 69 71 73
74 76 78 79 81 83 85 86 88 90 91 93 95 97 98;
#X obj 251 -104 table Dmajor 29;
#X obj 73 -101 set Dmajor;
#X obj 15 -207 textfile;
#X obj 33 -69 print;
#X msg 34 -254 rewind;
#X obj 60 -237 bng 15 250 50 0 empty empty empty 17 7 0 10 -262144
-1 -1;
#X obj -77 -146 random 300;
#X msg 93 -54 set Cminor;
#X obj 180 32 table Cminor 29;
#X msg 241 130 \; Times 0 500 200 500 200 500;
#X msg 190 -15 \; Cminor 0 48 50 51 53 55 56 58 60 62 63 65 67 68 70
72 74 75 77 79 80 82 84 86 87 89 91 92 94 96;
#X obj -159 -187 trigger b b b b;
#X obj -145 -214 loadbang;
#X obj 6 -173 -;
#X msg -31 -188 250;
#X msg 12 -290 read pulse.txt;
#X obj -18 294 cyclone/midiformat;
#X obj -16 394 cyclone/seq;
#X msg 60 317 record;
#X msg 112 317 stop record;
#X obj -20 430 midiparse;
#X obj -26 468 noteout;
#X obj -48 245 pack;
#X obj 161 217 metro 1000;
#X obj 224 280 sel 0;
#X obj 190 251 - 1;
#X obj 144 246 f 30;
#X obj 172 279 sel -1;
#X obj 388 324 trigger b b b b;
#X msg 446 359 read recnumber.txt;
#X obj 374 387 textfile;
#X obj 117 283 print;
#X obj 541 404 bng 15 250 50 0 empty empty empty 17 7 0 10 -262144
-1 -1;
#X obj 144 174 bng 15 250 50 0 empty empty empty 17 7 0 10 -262144
-1 -1;
#X msg 515 380 rewind;
#X msg 335 206 \; pd-agitated.pd menuclose 1;
#X obj 311 408 makefilename %s.mid;
#X text 182 346 When f 30 hits -1 \, triggers read \, then;
#X text 184 363 write message and textfile;
#X msg 289 431 write \$1;
#X obj 314 464 print;
#X obj -239 261 trigger b b b b;
#X obj -255 329 textfile;
#X obj -86 341 bng 15 250 50 0 empty empty empty 17 7 0 10 -262144
-1 -1;
#X msg -112 317 rewind;
#X msg -181 296 read volume.txt;
#X obj -315 326 print;
#X connect 0 0 1 0;
#X connect 0 0 36 0;
#X connect 0 1 1 1;
#X connect 0 1 36 1;
#X connect 2 0 3 0;
#X connect 3 0 10 0;
#X connect 3 0 12 0;
#X connect 3 0 55 0;
#X connect 4 0 3 0;
#X connect 4 0 37 0;
#X connect 6 0 0 0;
#X connect 6 0 5 0;
#X connect 8 0 0 2;
#X connect 9 0 8 0;
#X connect 10 0 8 0;
#X connect 11 0 21 0;
#X connect 11 0 9 0;
#X connect 11 0 24 0;
#X connect 11 0 23 0;
#X connect 11 0 13 0;
#X connect 11 0 32 0;
#X connect 11 0 37 0;
#X connect 12 0 6 0;
#X connect 16 0 27 1;
#X connect 16 0 17 0;
#X connect 16 1 17 0;
#X connect 18 0 16 0;
#X connect 19 0 16 0;
#X connect 21 0 6 0;
#X connect 25 0 3 0;
#X connect 25 1 16 0;
#X connect 25 2 18 0;
#X connect 25 3 29 0;
#X connect 26 0 25 0;
#X connect 26 0 28 0;
#X connect 27 0 17 0;
#X connect 27 0 3 1;
#X connect 28 0 27 0;
#X connect 29 0 16 0;
#X connect 30 0 31 0;
#X connect 31 0 34 0;
#X connect 32 0 31 0;
#X connect 33 0 31 0;
#X connect 34 0 35 0;
#X connect 34 1 35 1;
#X connect 36 0 30 0;
#X connect 37 0 40 0;
#X connect 38 0 33 0;
#X connect 39 0 40 1;
#X connect 40 0 38 0;
#X connect 40 0 39 0;
#X connect 40 0 41 0;
#X connect 40 0 45 0;
#X connect 41 0 42 0;
#X connect 41 0 4 0;
#X connect 42 1 44 0;
#X connect 42 2 48 0;
#X connect 42 3 43 0;
#X connect 43 0 44 0;
#X connect 44 0 50 0;
#X connect 46 0 44 0;
#X connect 47 0 37 0;
#X connect 48 0 44 0;
#X connect 50 0 53 0;
#X connect 53 0 54 0;
#X connect 53 0 31 0;
#X connect 55 1 56 0;
#X connect 55 2 58 0;
#X connect 55 3 59 0;
#X connect 56 0 60 0;
#X connect 56 0 0 1;
#X connect 57 0 56 0;
#X connect 58 0 56 0;
#X connect 59 0 56 0;
